# xmcd
#
# Track frame offsets:
#	150
#	21754
#	41591
#	60366
#	84020
#	123295
#	143964
#	162948
#	177031
#	192441
#	209635
#	220988
#	237149
#	254293
#	269673
#	286342
#	308232
#	321633
#	331299
#	351385
#
# Disc length: 4828 seconds
# Revision: 0
# Processed by: cddbd v1.5.2PL0 Copyright (c) Steve Scherf et al.
# Submitted via: dBpowerAMP V12.0
#
DISCID=3112da14
DTITLE=Vidar Busk - Tung ørn flyr lavt - Best of Busk [CD 2)
DYEAR=2015
DGENRE=Blues
TTITLE0=Venus Texas
TTITLE1=Drive On
TTITLE2=Goodnight Moon
TTITLE3=Bubblin'
TTITLE4=If I Had The Power
TTITLE5=Remember Me
TTITLE6=Bang The Drum
TTITLE7=Everblue Green
TTITLE8=Love Buzz 
TTITLE9=Come On Down
TTITLE10=Melancholy In Frame
TTITLE11=U-Turn
TTITLE12=Can’t Stand Steady
TTITLE13=Starfish
TTITLE14=Aqua Lounge 
TTITLE15=Only You
TTITLE16=Town Without Pity 
TTITLE17=Hurry Up'N Wait
TTITLE18=Alabama Bloodhound
TTITLE19=Danger Zone
EXTD=
EXTT0=
EXTT1=
EXTT2=
EXTT3=
EXTT4=
EXTT5=
EXTT6=
EXTT7=
EXTT8=
EXTT9=
EXTT10=
EXTT11=
EXTT12=
EXTT13=
EXTT14=
EXTT15=
EXTT16=
EXTT17=
EXTT18=
EXTT19=
PLAYORDER=
